<?xml version="1.0" encoding="iso-8859-1"?>
<!-- Generator: Adobe Illustrator 19.0.0, SVG Export Plug-In . SVG Version: 6.00 Build 0)  -->
<svg version="1.1" id="Layer_1" xmlns="http://www.w3.org/2000/svg" xmlns:xlink="http://www.w3.org/1999/xlink" x="0px" y="0px"
	 viewBox="0 0 511.999 511.999" style="enable-background:new 0 0 511.999 511.999;" xml:space="preserve">
<g>
	<g>
		<path d="M1.338,207.754v223.31h510.661v-223.31H1.338z M17.117,415.286V223.533H496.22v191.753H17.117z"/>
	</g>
</g>
<g>
	<g>
		<path d="M256.669,255.646c-35.159,0-63.763,28.604-63.763,63.763c0,35.159,28.604,63.763,63.763,63.763
			c35.159,0,63.763-28.604,63.763-63.763C320.432,284.25,291.828,255.646,256.669,255.646z M256.669,367.394
			c-26.459,0-47.984-21.526-47.984-47.984s21.526-47.984,47.984-47.984c26.459,0,47.984,21.525,47.984,47.984
			S283.128,367.394,256.669,367.394z"/>
	</g>
</g>
<g>
	<g>
		<path d="M488.054,231.7H25.284v175.419h462.77L488.054,231.7L488.054,231.7z M41.063,391.34v-36.474
			c8.482,7.666,19.714,12.343,32.019,12.343c26.357,0,47.799-21.442,47.799-47.799c0-26.357-21.443-47.799-47.799-47.799
			c-12.306,0-23.539,4.677-32.019,12.343v-36.474h165.506c-20.897,14.6-35.154,38.051-37.301,64.878h-39.882v15.779h40.01
			c2.593,26.13,16.71,48.907,37.173,63.204H41.063z M41.063,319.409c0-17.656,14.364-32.021,32.019-32.021
			c17.657,0,32.021,14.364,32.021,32.021c0,17.657-14.364,32.021-32.021,32.021C55.427,351.43,41.063,337.065,41.063,319.409z
			 M184.739,319.409c0-39.663,32.268-71.93,71.93-71.93c39.663,0,71.93,32.268,71.93,71.93c0,39.663-32.268,71.93-71.93,71.93
			C217.006,391.34,184.739,359.071,184.739,319.409z M472.275,283.953c-8.482-7.666-19.714-12.343-32.019-12.343
			c-26.357,0-47.799,21.442-47.799,47.799c0,26.357,21.443,47.799,47.799,47.799c12.306,0,23.539-4.677,32.019-12.343v36.474
			H306.769c20.463-14.297,34.58-37.074,37.173-63.204h40.01v-15.779H344.07c-2.147-26.827-16.404-50.279-37.301-64.878h165.506
			V283.953z M472.275,319.409c0,17.657-14.364,32.021-32.019,32.021c-17.656,0-32.021-14.364-32.021-32.021
			c0-17.656,14.364-32.021,32.021-32.021C457.911,287.389,472.275,301.753,472.275,319.409z"/>
	</g>
</g>
<g>
	<g>
		<path d="M260.925,313.953c-8.13-3.255-11.583-5.456-11.583-9.381c0-3.255,2.393-6.7,9.097-6.7c6.509,0,10.725,2.202,13.018,3.255
			l2.588-8.809c-3.063-1.532-7.179-2.966-13.212-3.157v-8.906h-7.849v9.381c-9.666,1.726-15.411,8.044-15.411,16.275
			c0,8.901,6.509,13.497,16.565,17.137c7.077,2.584,10.43,5.359,10.43,9.666c0,4.599-4.115,7.565-10.149,7.565
			c-5.838,0-11.201-2.011-14.935-4.213l-2.58,8.999c3.445,2.299,9.479,4.023,15.504,4.213v9.283h7.857v-9.861
			c10.523-1.723,16.174-8.901,16.174-17.039C276.437,323.143,271.651,317.975,260.925,313.953z"/>
	</g>
</g>
<g>
	<g>
		<rect x="65.219" y="312.357" width="15.779" height="15.779"/>
	</g>
</g>
<g>
	<g>
		<rect x="432.34" y="312.357" width="15.779" height="15.779"/>
	</g>
</g>
<g>
	<g>
		<polygon points="0,176.659 0,199.802 15.779,199.802 15.779,192.438 495.455,192.438 495.455,199.802 511.234,199.802 
			511.234,176.659 		"/>
	</g>
</g>
<g>
	<g>
		<polygon points="0,145.102 0,168.244 15.779,168.244 15.779,160.88 495.455,160.88 495.455,168.244 511.234,168.244 
			511.234,145.102 		"/>
	</g>
</g>
<g>
	<g>
		<polygon points="0,113.544 0,135.634 15.779,135.634 15.779,129.323 495.455,129.323 495.455,135.634 511.234,135.634 
			511.234,113.544 		"/>
	</g>
</g>
<g>
	<g>
		<polygon points="0,80.934 0,104.077 15.779,104.077 15.779,96.713 495.455,96.713 495.455,104.077 511.234,104.077 
			511.234,80.934 		"/>
	</g>
</g>
<g>
</g>
<g>
</g>
<g>
</g>
<g>
</g>
<g>
</g>
<g>
</g>
<g>
</g>
<g>
</g>
<g>
</g>
<g>
</g>
<g>
</g>
<g>
</g>
<g>
</g>
<g>
</g>
<g>
</g>
</svg>
